# MagicaVoxel @ Ephtracy

# material
mtllib alphaca2.mtl
usemtl palette

# normals
vn -1 0 0
vn 1 0 0
vn 0 0 1
vn 0 0 -1
vn 0 -1 0
vn 0 1 0

# texcoords
vt 0.0214844 0.5
vt 0.306641 0.5
vt 0.533203 0.5
vt 0.916016 0.5
vt 0.955078 0.5
vt 0.958984 0.5
vt 0.962891 0.5

# verts
v -10 13 19
v -10 13 -20
v -10 15 20
v -10 15 19
v -10 24 20
v -10 24 -20
v -9 24 20
v -9 24 -20
v -9 25 20
v -9 25 -20
v -8 11 17
v -8 11 -20
v -8 13 17
v -8 13 -20
v -8 25 20
v -8 25 -20
v -8 26 20
v -8 26 -20
v -8 40 20
v -8 40 8
v -8 46 18
v -8 46 8
v -8 47 20
v -8 47 18
v -7 0 15
v -7 0 8
v -7 0 -9
v -7 0 -16
v -7 2 15
v -7 2 8
v -7 2 -9
v -7 2 -16
v -7 11 15
v -7 11 8
v -7 11 -9
v -7 11 -16
v -7 37 20
v -7 37 8
v -7 40 20
v -7 40 8
v -7 46 18
v -7 46 8
v -7 47 20
v -7 47 18
v -7 48 20
v -7 48 8
v -6 48 20
v -6 48 8
v -6 49 20
v -6 49 19
v -6 50 20
v -6 50 19
v -6 51 20
v -6 51 8
v -5 12 -21
v -5 12 -23
v -5 13 -23
v -5 13 -24
v -5 14 -24
v -5 14 -25
v -5 15 -20
v -5 15 -21
v -5 26 19
v -5 26 8
v -5 26 -20
v -5 26 -25
v -5 27 19
v -5 27 9
v -5 27 8
v -5 27 -20
v -5 28 9
v -5 28 8
v -5 36 20
v -5 36 19
v -5 37 20
v -5 37 8
v -3 39 21
v -3 39 20
v -3 39 19
v -3 40 21
v -3 40 20
v -3 42 21
v -3 42 19
v -2 38 21
v -2 38 20
v -2 39 21
v -2 39 20
v 0 0 15
v 0 0 8
v 0 0 -9
v 0 0 -16
v 0 2 15
v 0 2 8
v 0 2 -9
v 0 2 -16
v 0 9 15
v 0 9 8
v 0 9 -9
v 0 9 -16
v 2 39 20
v 2 39 19
v 2 40 20
v 2 40 19
v 2 49 20
v 2 49 8
v 2 51 20
v 2 51 8
v 3 40 20
v 3 40 19
v 3 42 20
v 3 42 19
v 3 45 20
v 3 45 19
v 3 46 20
v 3 46 19
v 4 42 20
v 4 42 19
v 4 45 20
v 4 45 19
v -6 41 20
v -6 41 19
v -6 45 20
v -6 45 19
v -5 40 20
v -5 40 19
v -5 41 20
v -5 41 19
v -5 45 20
v -5 45 19
v -5 46 20
v -5 46 19
v -4 39 20
v -4 39 19
v -4 40 20
v -4 40 19
v -4 49 20
v -4 49 8
v -4 51 20
v -4 51 8
v -2 0 15
v -2 0 8
v -2 0 -9
v -2 0 -16
v -2 2 15
v -2 2 8
v -2 2 -9
v -2 2 -16
v -2 9 15
v -2 9 8
v -2 9 -9
v -2 9 -16
v 0 38 21
v 0 38 20
v 0 39 21
v 0 39 20
v 1 39 21
v 1 39 20
v 1 39 19
v 1 40 21
v 1 40 20
v 1 42 21
v 1 42 19
v 2 12 -21
v 2 12 -23
v 2 13 -23
v 2 13 -24
v 2 14 -24
v 2 14 -25
v 2 15 -20
v 2 15 -21
v 2 26 -20
v 2 26 -25
v 3 26 19
v 3 26 8
v 3 26 -20
v 3 27 19
v 3 27 9
v 3 27 8
v 3 27 -20
v 3 28 9
v 3 28 8
v 3 36 20
v 3 36 19
v 3 37 20
v 3 37 8
v 4 48 20
v 4 48 8
v 4 49 20
v 4 49 19
v 4 50 20
v 4 50 19
v 4 51 20
v 4 51 8
v 5 0 15
v 5 0 8
v 5 0 -9
v 5 0 -16
v 5 2 15
v 5 2 8
v 5 2 -9
v 5 2 -16
v 5 11 15
v 5 11 8
v 5 11 -9
v 5 11 -16
v 5 37 20
v 5 37 8
v 5 40 20
v 5 40 8
v 5 46 20
v 5 46 8
v 5 48 20
v 5 48 8
v 6 11 17
v 6 11 -20
v 6 13 17
v 6 13 -20
v 6 25 20
v 6 25 -20
v 6 26 20
v 6 26 -20
v 6 40 20
v 6 40 8
v 6 46 20
v 6 46 8
v 7 24 20
v 7 24 -20
v 7 25 20
v 7 25 -20
v 8 13 19
v 8 13 -20
v 8 15 20
v 8 15 19
v 8 24 20
v 8 24 -20
v -3 39 21
v -3 40 21
v -3 42 21
v -2 38 21
v -2 39 21
v -2 40 21
v -2 42 21
v -1 40 21
v -1 41 21
v 0 38 21
v 0 39 21
v 0 41 21
v 0 42 21
v 1 39 21
v 1 40 21
v 1 42 21
v -10 15 20
v -10 24 20
v -9 24 20
v -9 25 20
v -8 25 20
v -8 26 20
v -8 40 20
v -8 47 20
v -7 37 20
v -7 40 20
v -7 47 20
v -7 48 20
v -6 41 20
v -6 45 20
v -6 48 20
v -6 49 20
v -6 50 20
v -6 51 20
v -5 25 20
v -5 26 20
v -5 36 20
v -5 37 20
v -5 40 20
v -5 41 20
v -5 45 20
v -5 46 20
v -5 49 20
v -5 50 20
v -4 24 20
v -4 25 20
v -4 26 20
v -4 39 20
v -4 40 20
v -4 49 20
v -4 51 20
v -3 17 20
v -3 21 20
v -3 23 20
v -3 24 20
v -3 25 20
v -3 39 20
v -2 21 20
v -2 22 20
v -2 23 20
v -2 24 20
v -2 38 20
v -2 39 20
v 0 21 20
v 0 22 20
v 0 23 20
v 0 24 20
v 0 38 20
v 0 39 20
v 1 17 20
v 1 21 20
v 1 23 20
v 1 24 20
v 1 25 20
v 1 39 20
v 2 24 20
v 2 25 20
v 2 26 20
v 2 39 20
v 2 40 20
v 2 49 20
v 2 51 20
v 3 25 20
v 3 26 20
v 3 36 20
v 3 37 20
v 3 40 20
v 3 42 20
v 3 45 20
v 3 46 20
v 3 49 20
v 3 50 20
v 4 42 20
v 4 45 20
v 4 48 20
v 4 49 20
v 4 50 20
v 4 51 20
v 5 37 20
v 5 40 20
v 5 46 20
v 5 48 20
v 6 25 20
v 6 26 20
v 6 40 20
v 6 46 20
v 7 24 20
v 7 25 20
v 8 15 20
v 8 24 20
v -10 13 19
v -10 15 19
v -6 41 19
v -6 45 19
v -5 26 19
v -5 27 19
v -5 36 19
v -5 40 19
v -5 41 19
v -5 42 19
v -5 44 19
v -5 45 19
v -5 46 19
v -4 26 19
v -4 27 19
v -4 39 19
v -4 40 19
v -4 42 19
v -4 44 19
v -3 39 19
v -3 42 19
v 1 39 19
v 1 42 19
v 2 26 19
v 2 27 19
v 2 39 19
v 2 40 19
v 2 42 19
v 2 44 19
v 3 26 19
v 3 27 19
v 3 36 19
v 3 40 19
v 3 42 19
v 3 44 19
v 3 45 19
v 3 46 19
v 4 42 19
v 4 45 19
v 8 13 19
v 8 15 19
v -8 11 17
v -8 13 17
v 6 11 17
v 6 13 17
v -7 0 15
v -7 2 15
v -7 11 15
v -2 0 15
v -2 2 15
v -2 9 15
v 0 0 15
v 0 2 15
v 0 9 15
v 5 0 15
v 5 2 15
v 5 11 15
v -7 0 -9
v -7 2 -9
v -7 11 -9
v -2 0 -9
v -2 2 -9
v -2 9 -9
v 0 0 -9
v 0 2 -9
v 0 9 -9
v 5 0 -9
v 5 2 -9
v 5 11 -9
v -5 12 -21
v -5 15 -21
v 2 12 -21
v 2 15 -21
v -8 46 18
v -8 47 18
v -7 46 18
v -7 47 18
v -8 40 8
v -8 46 8
v -7 0 8
v -7 2 8
v -7 11 8
v -7 37 8
v -7 40 8
v -7 46 8
v -7 48 8
v -6 48 8
v -6 51 8
v -5 27 8
v -5 28 8
v -5 37 8
v -4 49 8
v -4 51 8
v -2 0 8
v -2 2 8
v -2 9 8
v 0 0 8
v 0 2 8
v 0 9 8
v 2 49 8
v 2 51 8
v 3 27 8
v 3 28 8
v 3 37 8
v 4 48 8
v 4 51 8
v 5 0 8
v 5 2 8
v 5 11 8
v 5 37 8
v 5 40 8
v 5 46 8
v 5 48 8
v 6 40 8
v 6 46 8
v -7 0 -16
v -7 2 -16
v -7 11 -16
v -2 0 -16
v -2 2 -16
v -2 9 -16
v 0 0 -16
v 0 2 -16
v 0 9 -16
v 5 0 -16
v 5 2 -16
v 5 11 -16
v -10 13 -20
v -10 24 -20
v -9 24 -20
v -9 25 -20
v -8 11 -20
v -8 13 -20
v -8 25 -20
v -8 26 -20
v -5 15 -20
v -5 26 -20
v -5 27 -20
v 2 15 -20
v 2 26 -20
v 3 26 -20
v 3 27 -20
v 6 11 -20
v 6 13 -20
v 6 25 -20
v 6 26 -20
v 7 24 -20
v 7 25 -20
v 8 13 -20
v 8 24 -20
v -5 12 -23
v -5 13 -23
v 2 12 -23
v 2 13 -23
v -5 13 -24
v -5 14 -24
v 2 13 -24
v 2 14 -24
v -5 14 -25
v -5 26 -25
v 2 14 -25
v 2 26 -25
v -7 0 15
v -2 0 15
v 0 0 15
v 5 0 15
v -7 0 8
v -2 0 8
v 0 0 8
v 5 0 8
v -7 0 -9
v -2 0 -9
v 0 0 -9
v 5 0 -9
v -7 0 -16
v -2 0 -16
v 0 0 -16
v 5 0 -16
v -2 9 15
v 0 9 15
v -2 9 8
v 0 9 8
v -2 9 -9
v 0 9 -9
v -2 9 -16
v 0 9 -16
v -8 11 17
v 6 11 17
v -7 11 15
v 5 11 15
v -7 11 8
v 5 11 8
v -7 11 -9
v 5 11 -9
v -7 11 -16
v 5 11 -16
v -8 11 -20
v 6 11 -20
v -5 12 -21
v 2 12 -21
v -5 12 -23
v 2 12 -23
v -10 13 19
v 8 13 19
v -8 13 17
v 6 13 17
v -10 13 -20
v -8 13 -20
v 6 13 -20
v 8 13 -20
v -5 13 -23
v 2 13 -23
v -5 13 -24
v 2 13 -24
v -5 14 -24
v 2 14 -24
v -5 14 -25
v 2 14 -25
v -10 15 20
v 8 15 20
v -10 15 19
v 8 15 19
v -5 15 -20
v 2 15 -20
v -5 15 -21
v 2 15 -21
v -5 36 20
v 3 36 20
v -5 36 19
v 3 36 19
v -7 37 20
v -5 37 20
v 3 37 20
v 5 37 20
v -7 37 8
v -5 37 8
v 3 37 8
v 5 37 8
v -2 38 21
v 0 38 21
v -2 38 20
v 0 38 20
v -3 39 21
v -2 39 21
v 0 39 21
v 1 39 21
v -3 39 20
v -2 39 20
v 0 39 20
v 1 39 20
v -8 40 20
v -7 40 20
v 5 40 20
v 6 40 20
v -8 40 8
v -7 40 8
v 5 40 8
v 6 40 8
v -6 45 20
v -5 45 20
v 3 45 20
v 4 45 20
v -6 45 19
v -5 45 19
v 3 45 19
v 4 45 19
v -5 46 20
v 3 46 20
v -5 46 19
v 3 46 19
v -10 24 20
v -9 24 20
v 7 24 20
v 8 24 20
v -10 24 -20
v -9 24 -20
v 7 24 -20
v 8 24 -20
v -9 25 20
v -8 25 20
v 6 25 20
v 7 25 20
v -9 25 -20
v -8 25 -20
v 6 25 -20
v 7 25 -20
v -8 26 20
v -5 26 20
v -4 26 20
v 2 26 20
v 3 26 20
v 6 26 20
v -5 26 19
v -4 26 19
v 2 26 19
v 3 26 19
v -5 26 8
v 3 26 8
v -8 26 -20
v -5 26 -20
v 2 26 -20
v 3 26 -20
v 6 26 -20
v -5 26 -25
v 2 26 -25
v -5 27 8
v 3 27 8
v -5 27 -20
v 3 27 -20
v -4 39 20
v -3 39 20
v 1 39 20
v 2 39 20
v -4 39 19
v -3 39 19
v 1 39 19
v 2 39 19
v -5 40 20
v -4 40 20
v 2 40 20
v 3 40 20
v -5 40 19
v -4 40 19
v 2 40 19
v 3 40 19
v -6 41 20
v -5 41 20
v -6 41 19
v -5 41 19
v -3 42 21
v -2 42 21
v 0 42 21
v 1 42 21
v -2 42 20
v 0 42 20
v 3 42 20
v 4 42 20
v -3 42 19
v 1 42 19
v 3 42 19
v 4 42 19
v 5 46 20
v 6 46 20
v -8 46 18
v -7 46 18
v -8 46 8
v -7 46 8
v 5 46 8
v 6 46 8
v -8 47 20
v -7 47 20
v -8 47 18
v -7 47 18
v -7 48 20
v -6 48 20
v 4 48 20
v 5 48 20
v -7 48 8
v -6 48 8
v 4 48 8
v 5 48 8
v -4 49 20
v 2 49 20
v -4 49 8
v 2 49 8
v -6 51 20
v -4 51 20
v 2 51 20
v 4 51 20
v -6 51 8
v -4 51 8
v 2 51 8
v 4 51 8

# faces
f 4/6/1 2/6/1 1/6/1
f 5/6/1 4/6/1 3/6/1
f 6/6/1 2/6/1 4/6/1
f 6/6/1 4/6/1 5/6/1
f 9/6/1 8/6/1 7/6/1
f 10/6/1 8/6/1 9/6/1
f 13/6/1 12/6/1 11/6/1
f 14/6/1 12/6/1 13/6/1
f 17/6/1 16/6/1 15/6/1
f 18/6/1 16/6/1 17/6/1
f 21/6/1 20/6/1 19/6/1
f 22/6/1 20/6/1 21/6/1
f 23/6/1 21/6/1 19/6/1
f 24/6/1 21/6/1 23/6/1
f 29/3/1 26/3/1 25/3/1
f 30/3/1 26/3/1 29/3/1
f 31/3/1 28/3/1 27/3/1
f 32/3/1 28/3/1 31/3/1
f 33/6/1 30/6/1 29/6/1
f 34/6/1 30/6/1 33/6/1
f 35/6/1 32/6/1 31/6/1
f 36/6/1 32/6/1 35/6/1
f 39/6/1 38/6/1 37/6/1
f 40/6/1 38/6/1 39/6/1
f 44/6/1 42/6/1 41/6/1
f 45/6/1 44/6/1 43/6/1
f 46/6/1 42/6/1 44/6/1
f 46/6/1 44/6/1 45/6/1
f 49/6/1 48/6/1 47/6/1
f 50/6/1 48/6/1 49/6/1
f 51/7/1 50/7/1 49/7/1
f 52/6/1 48/6/1 50/6/1
f 52/7/1 50/7/1 51/7/1
f 53/6/1 52/6/1 51/6/1
f 54/6/1 48/6/1 52/6/1
f 54/6/1 52/6/1 53/6/1
f 57/6/1 56/6/1 55/6/1
f 59/6/1 58/6/1 57/6/1
f 62/6/1 57/6/1 55/6/1
f 62/6/1 60/6/1 59/6/1
f 62/6/1 59/6/1 57/6/1
f 65/6/1 62/6/1 61/6/1
f 66/6/1 60/6/1 62/6/1
f 66/6/1 62/6/1 65/6/1
f 67/5/1 64/5/1 63/5/1
f 68/5/1 64/5/1 67/5/1
f 69/6/1 65/6/1 64/6/1
f 69/5/1 64/5/1 68/5/1
f 70/6/1 65/6/1 69/6/1
f 71/6/1 68/6/1 67/6/1
f 71/5/1 69/5/1 68/5/1
f 72/5/1 69/5/1 71/5/1
f 74/6/1 71/6/1 67/6/1
f 74/6/1 72/6/1 71/6/1
f 75/6/1 74/6/1 73/6/1
f 76/6/1 72/6/1 74/6/1
f 76/6/1 74/6/1 75/6/1
f 80/3/1 78/3/1 77/3/1
f 81/6/1 79/6/1 78/6/1
f 81/3/1 78/3/1 80/3/1
f 82/6/1 81/6/1 80/6/1
f 83/6/1 79/6/1 81/6/1
f 83/6/1 81/6/1 82/6/1
f 86/6/1 85/6/1 84/6/1
f 87/6/1 85/6/1 86/6/1
f 92/3/1 89/3/1 88/3/1
f 93/3/1 89/3/1 92/3/1
f 94/3/1 91/3/1 90/3/1
f 95/3/1 91/3/1 94/3/1
f 96/6/1 93/6/1 92/6/1
f 97/6/1 93/6/1 96/6/1
f 98/6/1 95/6/1 94/6/1
f 99/6/1 95/6/1 98/6/1
f 102/6/1 101/6/1 100/6/1
f 103/6/1 101/6/1 102/6/1
f 106/6/1 105/6/1 104/6/1
f 107/6/1 105/6/1 106/6/1
f 110/6/1 109/6/1 108/6/1
f 111/6/1 109/6/1 110/6/1
f 114/6/1 113/6/1 112/6/1
f 115/6/1 113/6/1 114/6/1
f 118/6/1 117/6/1 116/6/1
f 119/6/1 117/6/1 118/6/1
f 120/6/2 121/6/2 122/6/2
f 122/6/2 121/6/2 123/6/2
f 124/6/2 125/6/2 126/6/2
f 126/6/2 125/6/2 127/6/2
f 128/6/2 129/6/2 130/6/2
f 130/6/2 129/6/2 131/6/2
f 132/6/2 133/6/2 134/6/2
f 134/6/2 133/6/2 135/6/2
f 136/6/2 137/6/2 138/6/2
f 138/6/2 137/6/2 139/6/2
f 140/3/2 141/3/2 144/3/2
f 144/3/2 141/3/2 145/3/2
f 142/3/2 143/3/2 146/3/2
f 146/3/2 143/3/2 147/3/2
f 144/6/2 145/6/2 148/6/2
f 148/6/2 145/6/2 149/6/2
f 146/6/2 147/6/2 150/6/2
f 150/6/2 147/6/2 151/6/2
f 152/6/2 153/6/2 154/6/2
f 154/6/2 153/6/2 155/6/2
f 156/3/2 157/3/2 159/3/2
f 157/6/2 158/6/2 160/6/2
f 159/3/2 157/3/2 160/3/2
f 159/6/2 160/6/2 161/6/2
f 160/6/2 158/6/2 162/6/2
f 161/6/2 160/6/2 162/6/2
f 163/6/2 164/6/2 165/6/2
f 165/6/2 166/6/2 167/6/2
f 163/6/2 165/6/2 170/6/2
f 167/6/2 168/6/2 170/6/2
f 165/6/2 167/6/2 170/6/2
f 169/6/2 170/6/2 171/6/2
f 170/6/2 168/6/2 172/6/2
f 171/6/2 170/6/2 172/6/2
f 173/5/2 174/5/2 176/5/2
f 176/5/2 174/5/2 177/5/2
f 174/6/2 175/6/2 178/6/2
f 177/5/2 174/5/2 178/5/2
f 178/6/2 175/6/2 179/6/2
f 176/6/2 177/6/2 180/6/2
f 177/5/2 178/5/2 180/5/2
f 180/5/2 178/5/2 181/5/2
f 176/6/2 180/6/2 183/6/2
f 180/6/2 181/6/2 183/6/2
f 182/6/2 183/6/2 184/6/2
f 183/6/2 181/6/2 185/6/2
f 184/6/2 183/6/2 185/6/2
f 186/6/2 187/6/2 188/6/2
f 188/6/2 187/6/2 189/6/2
f 188/7/2 189/7/2 190/7/2
f 189/6/2 187/6/2 191/6/2
f 190/7/2 189/7/2 191/7/2
f 190/6/2 191/6/2 192/6/2
f 191/6/2 187/6/2 193/6/2
f 192/6/2 191/6/2 193/6/2
f 194/3/2 195/3/2 198/3/2
f 198/3/2 195/3/2 199/3/2
f 196/3/2 197/3/2 200/3/2
f 200/3/2 197/3/2 201/3/2
f 198/6/2 199/6/2 202/6/2
f 202/6/2 199/6/2 203/6/2
f 200/6/2 201/6/2 204/6/2
f 204/6/2 201/6/2 205/6/2
f 206/6/2 207/6/2 208/6/2
f 208/6/2 207/6/2 209/6/2
f 210/6/2 211/6/2 212/6/2
f 212/6/2 211/6/2 213/6/2
f 214/6/2 215/6/2 216/6/2
f 216/6/2 215/6/2 217/6/2
f 218/6/2 219/6/2 220/6/2
f 220/6/2 219/6/2 221/6/2
f 222/6/2 223/6/2 224/6/2
f 224/6/2 223/6/2 225/6/2
f 226/6/2 227/6/2 228/6/2
f 228/6/2 227/6/2 229/6/2
f 230/6/2 231/6/2 233/6/2
f 232/6/2 233/6/2 234/6/2
f 233/6/2 231/6/2 235/6/2
f 234/6/2 233/6/2 235/6/2
f 240/3/3 237/3/3 236/3/3
f 241/6/3 238/6/3 237/6/3
f 241/3/3 237/3/3 240/3/3
f 242/6/3 238/6/3 241/6/3
f 243/3/3 241/3/3 240/3/3
f 243/3/3 242/3/3 241/3/3
f 244/3/3 242/3/3 243/3/3
f 245/6/3 240/6/3 239/6/3
f 246/3/3 243/3/3 240/3/3
f 246/6/3 240/6/3 245/6/3
f 247/3/3 242/3/3 244/3/3
f 247/6/3 244/6/3 243/6/3
f 248/3/3 242/3/3 247/3/3
f 249/3/3 243/3/3 246/3/3
f 250/6/3 248/6/3 247/6/3
f 250/3/3 243/3/3 249/3/3
f 250/6/3 247/6/3 243/6/3
f 251/6/3 248/6/3 250/6/3
f 254/6/3 253/6/3 252/6/3
f 256/6/3 255/6/3 254/6/3
f 261/6/3 259/6/3 258/6/3
f 262/6/3 259/6/3 261/6/3
f 264/6/3 261/6/3 260/6/3
f 264/6/3 263/6/3 262/6/3
f 264/6/3 262/6/3 261/6/3
f 265/6/3 263/6/3 264/6/3
f 266/6/3 263/6/3 265/6/3
f 270/6/3 256/6/3 254/6/3
f 270/6/3 257/6/3 256/6/3
f 271/6/3 257/6/3 270/6/3
f 273/6/3 264/6/3 260/6/3
f 274/6/3 264/6/3 273/6/3
f 275/6/3 264/6/3 274/6/3
f 276/6/3 267/6/3 266/6/3
f 276/6/3 266/6/3 265/6/3
f 277/6/3 267/6/3 276/6/3
f 278/7/3 268/7/3 267/7/3
f 278/6/3 267/6/3 277/6/3
f 279/6/3 269/6/3 268/6/3
f 279/7/3 268/7/3 278/7/3
f 280/6/3 254/6/3 252/6/3
f 280/6/3 270/6/3 254/6/3
f 281/4/3 271/4/3 270/4/3
f 281/6/3 270/6/3 280/6/3
f 282/4/3 271/4/3 281/4/3
f 283/6/3 274/6/3 273/6/3
f 283/6/3 273/6/3 272/6/3
f 284/6/3 274/6/3 283/6/3
f 285/6/3 278/6/3 277/6/3
f 285/6/3 279/6/3 278/6/3
f 286/6/3 269/6/3 279/6/3
f 286/6/3 279/6/3 285/6/3
f 287/6/3 280/6/3 252/6/3
f 288/6/3 280/6/3 287/6/3
f 289/6/3 280/6/3 288/6/3
f 290/4/3 281/4/3 280/4/3
f 290/6/3 280/6/3 289/6/3
f 291/6/3 282/6/3 281/6/3
f 291/4/3 281/4/3 290/4/3
f 292/6/3 283/6/3 272/6/3
f 293/6/3 289/6/3 288/6/3
f 293/1/3 288/1/3 287/1/3
f 294/6/3 289/6/3 293/6/3
f 295/4/3 290/4/3 289/4/3
f 295/6/3 289/6/3 294/6/3
f 296/6/3 291/6/3 290/6/3
f 296/4/3 290/4/3 295/4/3
f 297/6/3 292/6/3 272/6/3
f 298/6/3 292/6/3 297/6/3
f 299/1/3 294/1/3 293/1/3
f 299/1/3 293/1/3 287/1/3
f 300/4/3 295/4/3 294/4/3
f 300/1/3 294/1/3 299/1/3
f 301/6/3 296/6/3 295/6/3
f 301/4/3 295/4/3 300/4/3
f 302/6/3 291/6/3 296/6/3
f 302/6/3 296/6/3 301/6/3
f 303/6/3 297/6/3 272/6/3
f 305/6/3 287/6/3 252/6/3
f 305/1/3 299/1/3 287/1/3
f 306/6/3 301/6/3 300/6/3
f 306/1/3 299/1/3 305/1/3
f 306/6/3 300/6/3 299/6/3
f 307/4/3 302/4/3 301/4/3
f 307/6/3 301/6/3 306/6/3
f 308/6/3 291/6/3 302/6/3
f 308/4/3 302/4/3 307/4/3
f 309/6/3 282/6/3 291/6/3
f 309/6/3 291/6/3 308/6/3
f 310/6/3 304/6/3 303/6/3
f 311/6/3 308/6/3 307/6/3
f 311/6/3 307/6/3 306/6/3
f 311/6/3 306/6/3 305/6/3
f 311/4/3 309/4/3 308/4/3
f 312/6/3 282/6/3 309/6/3
f 312/4/3 309/4/3 311/4/3
f 313/6/3 282/6/3 312/6/3
f 314/6/3 310/6/3 303/6/3
f 316/6/3 285/6/3 277/6/3
f 318/6/3 312/6/3 311/6/3
f 318/4/3 313/4/3 312/4/3
f 319/4/3 313/4/3 318/4/3
f 320/6/3 315/6/3 314/6/3
f 320/6/3 314/6/3 303/6/3
f 320/6/3 303/6/3 272/6/3
f 321/6/3 315/6/3 320/6/3
f 322/6/3 315/6/3 321/6/3
f 325/6/3 317/6/3 316/6/3
f 325/6/3 316/6/3 277/6/3
f 326/6/3 317/6/3 325/6/3
f 327/6/3 317/6/3 326/6/3
f 328/6/3 323/6/3 322/6/3
f 328/6/3 322/6/3 321/6/3
f 329/6/3 326/6/3 325/6/3
f 329/6/3 325/6/3 324/6/3
f 330/6/3 326/6/3 329/6/3
f 331/7/3 327/7/3 326/7/3
f 331/6/3 326/6/3 330/6/3
f 332/6/3 317/6/3 327/6/3
f 332/7/3 327/7/3 331/7/3
f 333/6/3 317/6/3 332/6/3
f 334/6/3 330/6/3 329/6/3
f 334/6/3 329/6/3 328/6/3
f 334/6/3 328/6/3 321/6/3
f 335/6/3 330/6/3 334/6/3
f 336/6/3 330/6/3 335/6/3
f 337/6/3 330/6/3 336/6/3
f 338/6/3 319/6/3 318/6/3
f 338/6/3 318/6/3 311/6/3
f 339/6/3 319/6/3 338/6/3
f 340/6/3 336/6/3 335/6/3
f 341/6/3 336/6/3 340/6/3
f 342/6/3 311/6/3 305/6/3
f 342/6/3 338/6/3 311/6/3
f 343/6/3 338/6/3 342/6/3
f 344/6/3 305/6/3 252/6/3
f 344/6/3 342/6/3 305/6/3
f 345/6/3 342/6/3 344/6/3
f 354/6/3 349/6/3 348/6/3
f 355/6/3 349/6/3 354/6/3
f 356/6/3 349/6/3 355/6/3
f 357/6/3 349/6/3 356/6/3
f 359/5/3 351/5/3 350/5/3
f 360/6/3 352/6/3 351/6/3
f 360/5/3 351/5/3 359/5/3
f 362/6/3 354/6/3 353/6/3
f 362/6/3 355/6/3 354/6/3
f 363/5/3 356/5/3 355/5/3
f 363/6/3 355/6/3 362/6/3
f 364/6/3 358/6/3 357/6/3
f 364/5/3 356/5/3 363/5/3
f 364/6/3 357/6/3 356/6/3
f 365/6/3 363/6/3 362/6/3
f 365/6/3 362/6/3 361/6/3
f 365/6/3 364/6/3 363/6/3
f 366/6/3 364/6/3 365/6/3
f 368/6/3 364/6/3 366/6/3
f 369/6/3 360/6/3 359/6/3
f 370/6/3 352/6/3 360/6/3
f 370/6/3 360/6/3 369/6/3
f 371/6/3 368/6/3 367/6/3
f 372/6/3 368/6/3 371/6/3
f 373/6/3 364/6/3 368/6/3
f 373/6/3 368/6/3 372/6/3
f 374/6/3 358/6/3 364/6/3
f 374/6/3 364/6/3 373/6/3
f 375/5/3 370/5/3 369/5/3
f 376/6/3 352/6/3 370/6/3
f 376/5/3 370/5/3 375/5/3
f 377/6/3 352/6/3 376/6/3
f 378/6/3 373/6/3 372/6/3
f 379/5/3 374/5/3 373/5/3
f 379/6/3 373/6/3 378/6/3
f 380/6/3 358/6/3 374/6/3
f 380/5/3 374/5/3 379/5/3
f 381/6/3 358/6/3 380/6/3
f 382/6/3 358/6/3 381/6/3
f 383/6/3 381/6/3 380/6/3
f 383/6/3 380/6/3 379/6/3
f 384/6/3 381/6/3 383/6/3
f 385/6/3 347/6/3 346/6/3
f 386/6/3 347/6/3 385/6/3
f 389/6/3 388/6/3 387/6/3
f 390/6/3 388/6/3 389/6/3
f 394/3/3 392/3/3 391/3/3
f 395/6/3 393/6/3 392/6/3
f 395/3/3 392/3/3 394/3/3
f 396/6/3 393/6/3 395/6/3
f 399/6/3 393/6/3 396/6/3
f 400/3/3 398/3/3 397/3/3
f 401/6/3 399/6/3 398/6/3
f 401/3/3 398/3/3 400/3/3
f 402/6/3 393/6/3 399/6/3
f 402/6/3 399/6/3 401/6/3
f 406/3/3 404/3/3 403/3/3
f 407/6/3 405/6/3 404/6/3
f 407/3/3 404/3/3 406/3/3
f 408/6/3 405/6/3 407/6/3
f 411/6/3 405/6/3 408/6/3
f 412/3/3 410/3/3 409/3/3
f 413/6/3 411/6/3 410/6/3
f 413/3/3 410/3/3 412/3/3
f 414/6/3 405/6/3 411/6/3
f 414/6/3 411/6/3 413/6/3
f 417/6/3 416/6/3 415/6/3
f 418/6/3 416/6/3 417/6/3
f 419/6/4 420/6/4 421/6/4
f 421/6/4 420/6/4 422/6/4
f 423/6/4 424/6/4 429/6/4
f 429/6/4 424/6/4 430/6/4
f 428/6/4 429/6/4 432/6/4
f 430/6/4 431/6/4 432/6/4
f 429/6/4 430/6/4 432/6/4
f 428/6/4 432/6/4 436/6/4
f 432/6/4 433/6/4 436/6/4
f 436/6/4 433/6/4 437/6/4
f 435/6/4 436/6/4 437/6/4
f 437/6/4 433/6/4 438/6/4
f 425/3/4 426/3/4 439/3/4
f 426/6/4 427/6/4 440/6/4
f 439/3/4 426/3/4 440/3/4
f 440/6/4 427/6/4 441/6/4
f 441/6/4 427/6/4 444/6/4
f 435/6/4 437/6/4 445/6/4
f 434/5/4 435/5/4 447/5/4
f 445/6/4 446/6/4 448/6/4
f 447/5/4 435/5/4 448/5/4
f 435/6/4 445/6/4 448/6/4
f 448/6/4 446/6/4 449/6/4
f 449/6/4 446/6/4 450/6/4
f 450/6/4 446/6/4 451/6/4
f 442/3/4 443/3/4 452/3/4
f 443/6/4 444/6/4 453/6/4
f 452/3/4 443/3/4 453/3/4
f 444/6/4 427/6/4 454/6/4
f 453/6/4 444/6/4 454/6/4
f 449/6/4 450/6/4 455/6/4
f 455/6/4 450/6/4 456/6/4
f 456/6/4 450/6/4 457/6/4
f 457/6/4 450/6/4 458/6/4
f 456/6/4 457/6/4 459/6/4
f 459/6/4 457/6/4 460/6/4
f 461/3/4 462/3/4 464/3/4
f 462/6/4 463/6/4 465/6/4
f 464/3/4 462/3/4 465/3/4
f 465/6/4 463/6/4 466/6/4
f 466/6/4 463/6/4 469/6/4
f 467/3/4 468/3/4 470/3/4
f 468/6/4 469/6/4 471/6/4
f 470/3/4 468/3/4 471/3/4
f 469/6/4 463/6/4 472/6/4
f 471/6/4 469/6/4 472/6/4
f 473/6/4 474/6/4 475/6/4
f 473/6/4 475/6/4 478/6/4
f 475/6/4 476/6/4 478/6/4
f 478/6/4 476/6/4 479/6/4
f 477/6/4 478/6/4 481/6/4
f 479/6/4 480/6/4 481/6/4
f 478/6/4 479/6/4 481/6/4
f 481/6/4 480/6/4 482/6/4
f 477/6/4 481/6/4 484/6/4
f 482/6/4 483/6/4 485/6/4
f 485/6/4 483/6/4 486/6/4
f 484/6/4 485/6/4 486/6/4
f 486/6/4 483/6/4 487/6/4
f 477/6/4 484/6/4 488/6/4
f 484/6/4 486/6/4 488/6/4
f 488/6/4 486/6/4 489/6/4
f 489/6/4 486/6/4 490/6/4
f 490/6/4 486/6/4 491/6/4
f 489/6/4 490/6/4 492/6/4
f 492/6/4 490/6/4 493/6/4
f 489/6/4 492/6/4 494/6/4
f 494/6/4 492/6/4 495/6/4
f 496/6/4 497/6/4 498/6/4
f 498/6/4 497/6/4 499/6/4
f 500/6/4 501/6/4 502/6/4
f 502/6/4 501/6/4 503/6/4
f 504/6/4 505/6/4 506/6/4
f 506/6/4 505/6/4 507/6/4
f 512/3/5 509/3/5 508/3/5
f 513/3/5 509/3/5 512/3/5
f 514/3/5 511/3/5 510/3/5
f 515/3/5 511/3/5 514/3/5
f 520/3/5 517/3/5 516/3/5
f 521/3/5 517/3/5 520/3/5
f 522/3/5 519/3/5 518/3/5
f 523/3/5 519/3/5 522/3/5
f 526/6/5 525/6/5 524/6/5
f 527/6/5 525/6/5 526/6/5
f 530/6/5 529/6/5 528/6/5
f 531/6/5 529/6/5 530/6/5
f 534/6/5 533/6/5 532/6/5
f 535/6/5 533/6/5 534/6/5
f 536/6/5 534/6/5 532/6/5
f 537/6/5 533/6/5 535/6/5
f 538/6/5 536/6/5 532/6/5
f 538/6/5 537/6/5 536/6/5
f 539/6/5 533/6/5 537/6/5
f 539/6/5 537/6/5 538/6/5
f 540/6/5 538/6/5 532/6/5
f 541/6/5 533/6/5 539/6/5
f 542/6/5 540/6/5 532/6/5
f 542/6/5 541/6/5 540/6/5
f 543/6/5 533/6/5 541/6/5
f 543/6/5 541/6/5 542/6/5
f 546/6/5 545/6/5 544/6/5
f 547/6/5 545/6/5 546/6/5
f 550/6/5 549/6/5 548/6/5
f 551/6/5 549/6/5 550/6/5
f 552/6/5 550/6/5 548/6/5
f 553/6/5 550/6/5 552/6/5
f 554/6/5 549/6/5 551/6/5
f 555/6/5 549/6/5 554/6/5
f 558/6/5 557/6/5 556/6/5
f 559/6/5 557/6/5 558/6/5
f 562/6/5 561/6/5 560/6/5
f 563/6/5 561/6/5 562/6/5
f 566/6/5 565/6/5 564/6/5
f 567/6/5 565/6/5 566/6/5
f 570/6/5 569/6/5 568/6/5
f 571/6/5 569/6/5 570/6/5
f 574/6/5 573/6/5 572/6/5
f 575/6/5 573/6/5 574/6/5
f 580/6/5 577/6/5 576/6/5
f 581/6/5 577/6/5 580/6/5
f 582/6/5 579/6/5 578/6/5
f 583/6/5 579/6/5 582/6/5
f 586/6/5 585/6/5 584/6/5
f 587/6/5 585/6/5 586/6/5
f 592/3/5 589/3/5 588/3/5
f 593/3/5 589/3/5 592/3/5
f 594/3/5 591/3/5 590/3/5
f 595/3/5 591/3/5 594/3/5
f 600/6/5 597/6/5 596/6/5
f 601/6/5 597/6/5 600/6/5
f 602/6/5 599/6/5 598/6/5
f 603/6/5 599/6/5 602/6/5
f 608/6/5 605/6/5 604/6/5
f 609/6/5 605/6/5 608/6/5
f 610/6/5 607/6/5 606/6/5
f 611/6/5 607/6/5 610/6/5
f 614/6/5 613/6/5 612/6/5
f 615/6/5 613/6/5 614/6/5
f 616/6/6 617/6/6 620/6/6
f 620/6/6 617/6/6 621/6/6
f 618/6/6 619/6/6 622/6/6
f 622/6/6 619/6/6 623/6/6
f 624/6/6 625/6/6 628/6/6
f 628/6/6 625/6/6 629/6/6
f 626/6/6 627/6/6 630/6/6
f 630/6/6 627/6/6 631/6/6
f 632/6/6 633/6/6 638/6/6
f 633/4/6 634/4/6 638/4/6
f 634/6/6 635/6/6 639/6/6
f 638/4/6 634/4/6 639/4/6
f 635/4/6 636/4/6 640/4/6
f 639/6/6 635/6/6 640/6/6
f 636/6/6 637/6/6 641/6/6
f 640/4/6 636/4/6 641/4/6
f 632/6/6 638/6/6 642/6/6
f 641/6/6 637/6/6 643/6/6
f 632/6/6 642/6/6 644/6/6
f 644/6/6 642/6/6 645/6/6
f 643/6/6 637/6/6 647/6/6
f 647/6/6 637/6/6 648/6/6
f 645/6/6 646/6/6 649/6/6
f 649/6/6 646/6/6 650/6/6
f 651/6/6 652/6/6 653/6/6
f 653/6/6 652/6/6 654/6/6
f 655/6/6 656/6/6 659/6/6
f 659/6/6 656/6/6 660/6/6
f 657/6/6 658/6/6 661/6/6
f 661/6/6 658/6/6 662/6/6
f 663/6/6 664/6/6 667/6/6
f 667/6/6 664/6/6 668/6/6
f 665/6/6 666/6/6 669/6/6
f 669/6/6 666/6/6 670/6/6
f 671/6/6 672/6/6 673/6/6
f 673/6/6 672/6/6 674/6/6
f 675/6/6 676/6/6 679/6/6
f 676/3/6 677/3/6 679/3/6
f 677/6/6 678/6/6 680/6/6
f 679/3/6 677/3/6 680/3/6
f 675/6/6 679/6/6 683/6/6
f 679/6/6 680/6/6 683/6/6
f 680/6/6 678/6/6 684/6/6
f 683/6/6 680/6/6 684/6/6
f 681/6/6 682/6/6 685/6/6
f 685/6/6 682/6/6 686/6/6
f 689/6/6 690/6/6 691/6/6
f 691/6/6 690/6/6 692/6/6
f 687/6/6 688/6/6 693/6/6
f 693/6/6 688/6/6 694/6/6
f 695/6/6 696/6/6 697/6/6
f 697/6/6 696/6/6 698/6/6
f 699/6/6 700/6/6 703/6/6
f 703/6/6 700/6/6 704/6/6
f 701/6/6 702/6/6 705/6/6
f 705/6/6 702/6/6 706/6/6
f 707/6/6 708/6/6 709/6/6
f 709/6/6 708/6/6 710/6/6
f 711/6/6 712/6/6 715/6/6
f 715/6/6 712/6/6 716/6/6
f 713/6/6 714/6/6 717/6/6
f 717/6/6 714/6/6 718/6/6
