# MagicaVoxel @ Ephtracy

# material
mtllib tank_bullet.mtl
usemtl palette

# normals
vn -1 0 0
vn 1 0 0
vn 0 0 1
vn 0 0 -1
vn 0 -1 0
vn 0 1 0

# texcoords
vt 0.841797 0.5
vt 0.958984 0.5
vt 0.986328 0.5
vt 0.990234 0.5
vt 0.994141 0.5

# verts
v -3 1 0.5
v -3 1 -0.5
v -3 2 1.5
v -3 2 0.5
v -3 2 -0.5
v -3 2 -1.5
v -3 3 1.5
v -3 3 0.5
v -3 3 -0.5
v -3 3 -1.5
v -3 4 0.5
v -3 4 -0.5
v 2 1 0.5
v 2 1 -0.5
v 2 2 1.5
v 2 2 0.5
v 2 2 -0.5
v 2 2 -1.5
v 2 3 1.5
v 2 3 0.5
v 2 3 -0.5
v 2 3 -1.5
v 2 4 0.5
v 2 4 -0.5
v 3 2 0.5
v 3 2 -0.5
v 3 3 0.5
v 3 3 -0.5
v -3 2 1.5
v -3 3 1.5
v -2 2 1.5
v -2 3 1.5
v 1 2 1.5
v 1 3 1.5
v 2 2 1.5
v 2 3 1.5
v -3 1 0.5
v -3 2 0.5
v -3 3 0.5
v -3 4 0.5
v -2 1 0.5
v -2 2 0.5
v -2 3 0.5
v -2 4 0.5
v 1 1 0.5
v 1 2 0.5
v 1 3 0.5
v 1 4 0.5
v 2 1 0.5
v 2 2 0.5
v 2 3 0.5
v 2 4 0.5
v 3 2 0.5
v 3 3 0.5
v -3 1 -0.5
v -3 2 -0.5
v -3 3 -0.5
v -3 4 -0.5
v -2 1 -0.5
v -2 2 -0.5
v -2 3 -0.5
v -2 4 -0.5
v 1 1 -0.5
v 1 2 -0.5
v 1 3 -0.5
v 1 4 -0.5
v 2 1 -0.5
v 2 2 -0.5
v 2 3 -0.5
v 2 4 -0.5
v 3 2 -0.5
v 3 3 -0.5
v -3 2 -1.5
v -3 3 -1.5
v -2 2 -1.5
v -2 3 -1.5
v 1 2 -1.5
v 1 3 -1.5
v 2 2 -1.5
v 2 3 -1.5
v -3 1 0.5
v -2 1 0.5
v 1 1 0.5
v 2 1 0.5
v -3 1 -0.5
v -2 1 -0.5
v 1 1 -0.5
v 2 1 -0.5
v -3 2 1.5
v -2 2 1.5
v 1 2 1.5
v 2 2 1.5
v -3 2 0.5
v -2 2 0.5
v 1 2 0.5
v 2 2 0.5
v 3 2 0.5
v -3 2 -0.5
v -2 2 -0.5
v 1 2 -0.5
v 2 2 -0.5
v 3 2 -0.5
v -3 2 -1.5
v -2 2 -1.5
v 1 2 -1.5
v 2 2 -1.5
v -3 3 1.5
v -2 3 1.5
v 1 3 1.5
v 2 3 1.5
v -3 3 0.5
v -2 3 0.5
v 1 3 0.5
v 2 3 0.5
v 3 3 0.5
v -3 3 -0.5
v -2 3 -0.5
v 1 3 -0.5
v 2 3 -0.5
v 3 3 -0.5
v -3 3 -1.5
v -2 3 -1.5
v 1 3 -1.5
v 2 3 -1.5
v -3 4 0.5
v -2 4 0.5
v 1 4 0.5
v 2 4 0.5
v -3 4 -0.5
v -2 4 -0.5
v 1 4 -0.5
v 2 4 -0.5

# faces
f 4/2/1 2/2/1 1/2/1
f 5/2/1 2/2/1 4/2/1
f 7/2/1 4/2/1 3/2/1
f 8/1/1 5/1/1 4/1/1
f 8/2/1 4/2/1 7/2/1
f 9/2/1 6/2/1 5/2/1
f 9/1/1 5/1/1 8/1/1
f 10/2/1 6/2/1 9/2/1
f 11/2/1 9/2/1 8/2/1
f 12/2/1 9/2/1 11/2/1
f 13/5/2 14/5/2 16/5/2
f 16/5/2 14/5/2 17/5/2
f 15/5/2 16/5/2 19/5/2
f 19/5/2 16/5/2 20/5/2
f 17/5/2 18/5/2 21/5/2
f 21/5/2 18/5/2 22/5/2
f 20/5/2 21/5/2 23/5/2
f 23/5/2 21/5/2 24/5/2
f 25/4/2 26/4/2 27/4/2
f 27/4/2 26/4/2 28/4/2
f 31/2/3 30/2/3 29/2/3
f 32/2/3 30/2/3 31/2/3
f 33/3/3 32/3/3 31/3/3
f 34/3/3 32/3/3 33/3/3
f 35/5/3 34/5/3 33/5/3
f 36/5/3 34/5/3 35/5/3
f 41/2/3 38/2/3 37/2/3
f 42/2/3 38/2/3 41/2/3
f 43/2/3 40/2/3 39/2/3
f 44/2/3 40/2/3 43/2/3
f 45/3/3 42/3/3 41/3/3
f 46/3/3 42/3/3 45/3/3
f 47/3/3 44/3/3 43/3/3
f 48/3/3 44/3/3 47/3/3
f 49/5/3 46/5/3 45/5/3
f 50/5/3 46/5/3 49/5/3
f 51/5/3 48/5/3 47/5/3
f 52/5/3 48/5/3 51/5/3
f 53/4/3 51/4/3 50/4/3
f 54/4/3 51/4/3 53/4/3
f 55/2/4 56/2/4 59/2/4
f 59/2/4 56/2/4 60/2/4
f 57/2/4 58/2/4 61/2/4
f 61/2/4 58/2/4 62/2/4
f 59/3/4 60/3/4 63/3/4
f 63/3/4 60/3/4 64/3/4
f 61/3/4 62/3/4 65/3/4
f 65/3/4 62/3/4 66/3/4
f 63/5/4 64/5/4 67/5/4
f 67/5/4 64/5/4 68/5/4
f 65/5/4 66/5/4 69/5/4
f 69/5/4 66/5/4 70/5/4
f 68/4/4 69/4/4 71/4/4
f 71/4/4 69/4/4 72/4/4
f 73/2/4 74/2/4 75/2/4
f 75/2/4 74/2/4 76/2/4
f 75/3/4 76/3/4 77/3/4
f 77/3/4 76/3/4 78/3/4
f 77/5/4 78/5/4 79/5/4
f 79/5/4 78/5/4 80/5/4
f 85/2/5 82/2/5 81/2/5
f 86/3/5 83/3/5 82/3/5
f 86/2/5 82/2/5 85/2/5
f 87/5/5 84/5/5 83/5/5
f 87/3/5 83/3/5 86/3/5
f 88/5/5 84/5/5 87/5/5
f 93/2/5 90/2/5 89/2/5
f 94/3/5 91/3/5 90/3/5
f 94/2/5 90/2/5 93/2/5
f 95/5/5 92/5/5 91/5/5
f 95/3/5 91/3/5 94/3/5
f 96/5/5 92/5/5 95/5/5
f 101/4/5 97/4/5 96/4/5
f 102/4/5 97/4/5 101/4/5
f 103/2/5 99/2/5 98/2/5
f 104/3/5 100/3/5 99/3/5
f 104/2/5 99/2/5 103/2/5
f 105/5/5 101/5/5 100/5/5
f 105/3/5 100/3/5 104/3/5
f 106/5/5 101/5/5 105/5/5
f 107/2/6 108/2/6 111/2/6
f 108/3/6 109/3/6 112/3/6
f 111/2/6 108/2/6 112/2/6
f 109/5/6 110/5/6 113/5/6
f 112/3/6 109/3/6 113/3/6
f 113/5/6 110/5/6 114/5/6
f 114/4/6 115/4/6 119/4/6
f 119/4/6 115/4/6 120/4/6
f 116/2/6 117/2/6 121/2/6
f 117/3/6 118/3/6 122/3/6
f 121/2/6 117/2/6 122/2/6
f 118/5/6 119/5/6 123/5/6
f 122/3/6 118/3/6 123/3/6
f 123/5/6 119/5/6 124/5/6
f 125/2/6 126/2/6 129/2/6
f 126/3/6 127/3/6 130/3/6
f 129/2/6 126/2/6 130/2/6
f 127/5/6 128/5/6 131/5/6
f 130/3/6 127/3/6 131/3/6
f 131/5/6 128/5/6 132/5/6
